<?xml version="1.0" encoding="UTF-8" standalone="no"?>
<!DOCTYPE svg PUBLIC "-//W3C//DTD SVG 1.1//EN" "http://www.w3.org/Graphics/SVG/1.1/DTD/svg11.dtd">
<svg width="100%" height="100%" viewBox="0 0 1882 512" version="1.1" xmlns="http://www.w3.org/2000/svg" xmlns:xlink="http://www.w3.org/1999/xlink" xml:space="preserve" xmlns:serif="http://www.serif.com/" style="fill-rule:evenodd;clip-rule:evenodd;stroke-linejoin:round;stroke-miterlimit:2;">
    <g transform="matrix(1,0,0,1,-4634,-3767)">
        <g id="Wordmark---Light-Transparent" serif:id="Wordmark - Light Transparent" transform="matrix(0.736307,0,0,0.851913,2361.757433,811.712146)">
            <rect x="3086" y="3469" width="2556" height="601" style="fill:white;fill-opacity:0;"/>
            <g transform="matrix(1.35813,0,0,1.173828,-430.197662,2325.691406)">
                <g transform="matrix(512,0,0,512,2625.261194,1427.605546)">
                    <path d="M0.395,-0.722C0.44,-0.722 0.476,-0.716 0.504,-0.703C0.532,-0.69 0.558,-0.675 0.581,-0.657C0.589,-0.651 0.596,-0.647 0.601,-0.647C0.613,-0.647 0.622,-0.668 0.626,-0.708L0.649,-0.708C0.647,-0.683 0.646,-0.652 0.646,-0.615C0.645,-0.578 0.645,-0.53 0.645,-0.47L0.622,-0.47C0.617,-0.506 0.61,-0.538 0.602,-0.567C0.593,-0.595 0.578,-0.62 0.555,-0.64C0.538,-0.659 0.516,-0.673 0.49,-0.683C0.464,-0.694 0.437,-0.699 0.41,-0.699C0.375,-0.699 0.344,-0.69 0.317,-0.671C0.291,-0.653 0.269,-0.628 0.251,-0.596C0.234,-0.565 0.221,-0.528 0.212,-0.486C0.203,-0.444 0.199,-0.4 0.199,-0.353C0.199,-0.233 0.216,-0.145 0.251,-0.089C0.286,-0.034 0.338,-0.006 0.406,-0.006C0.425,-0.006 0.441,-0.009 0.455,-0.013C0.469,-0.018 0.48,-0.024 0.488,-0.029C0.499,-0.037 0.505,-0.044 0.509,-0.052C0.512,-0.06 0.514,-0.07 0.514,-0.082L0.514,-0.18C0.514,-0.209 0.511,-0.231 0.506,-0.246C0.501,-0.26 0.491,-0.27 0.477,-0.275C0.462,-0.28 0.441,-0.283 0.413,-0.284L0.413,-0.304C0.426,-0.303 0.442,-0.303 0.46,-0.302C0.479,-0.302 0.498,-0.302 0.518,-0.301C0.538,-0.301 0.557,-0.301 0.574,-0.301C0.6,-0.301 0.623,-0.301 0.645,-0.302C0.666,-0.303 0.684,-0.303 0.698,-0.304L0.698,-0.284C0.684,-0.283 0.674,-0.281 0.668,-0.277C0.661,-0.273 0.656,-0.265 0.654,-0.253C0.652,-0.241 0.651,-0.223 0.651,-0.198L0.651,-0L0.631,-0C0.63,-0.011 0.628,-0.024 0.623,-0.037C0.619,-0.05 0.612,-0.057 0.602,-0.057C0.598,-0.057 0.592,-0.056 0.586,-0.054C0.58,-0.051 0.569,-0.046 0.555,-0.038C0.532,-0.023 0.507,-0.01 0.48,-0.001C0.454,0.009 0.425,0.014 0.394,0.014C0.319,0.014 0.256,-0 0.205,-0.029C0.153,-0.057 0.113,-0.098 0.087,-0.152C0.06,-0.205 0.047,-0.27 0.047,-0.344C0.047,-0.421 0.062,-0.488 0.092,-0.544C0.122,-0.6 0.163,-0.644 0.215,-0.675C0.268,-0.706 0.328,-0.722 0.395,-0.722Z" style="fill-rule:nonzero;"/>
                </g>
                <g transform="matrix(512,0,0,512,2974.036257,1427.605546)">
                    <path d="M0.214,-0.783L0.214,-0.093C0.214,-0.065 0.22,-0.046 0.23,-0.036C0.24,-0.026 0.258,-0.021 0.282,-0.021L0.282,-0C0.27,-0.001 0.252,-0.002 0.228,-0.003C0.203,-0.004 0.178,-0.004 0.153,-0.004C0.128,-0.004 0.103,-0.004 0.078,-0.003C0.052,-0.002 0.033,-0.001 0.02,-0L0.02,-0.021C0.045,-0.021 0.063,-0.026 0.073,-0.036C0.083,-0.046 0.088,-0.065 0.088,-0.093L0.088,-0.663C0.088,-0.693 0.084,-0.715 0.074,-0.73C0.065,-0.744 0.047,-0.751 0.02,-0.751L0.02,-0.772C0.042,-0.77 0.062,-0.769 0.082,-0.769C0.107,-0.769 0.131,-0.77 0.153,-0.773C0.175,-0.775 0.196,-0.779 0.214,-0.783Z" style="fill-rule:nonzero;"/>
                </g>
                <g transform="matrix(512,0,0,512,3108.590382,1427.605546)">
                    <path d="M0.165,0.007C0.136,0.007 0.112,0.002 0.092,-0.009C0.072,-0.021 0.057,-0.035 0.047,-0.054C0.037,-0.073 0.032,-0.094 0.032,-0.118C0.032,-0.147 0.039,-0.17 0.052,-0.188C0.065,-0.207 0.082,-0.221 0.103,-0.233C0.124,-0.244 0.146,-0.253 0.17,-0.261C0.193,-0.268 0.215,-0.276 0.236,-0.283C0.257,-0.29 0.274,-0.298 0.287,-0.307C0.301,-0.317 0.307,-0.329 0.307,-0.344L0.307,-0.417C0.307,-0.438 0.304,-0.456 0.297,-0.47C0.291,-0.483 0.282,-0.494 0.269,-0.501C0.257,-0.507 0.241,-0.511 0.223,-0.511C0.209,-0.511 0.194,-0.509 0.179,-0.505C0.163,-0.501 0.151,-0.493 0.141,-0.482C0.158,-0.477 0.172,-0.468 0.181,-0.456C0.191,-0.443 0.196,-0.428 0.196,-0.41C0.196,-0.39 0.189,-0.373 0.175,-0.361C0.162,-0.35 0.145,-0.344 0.124,-0.344C0.102,-0.344 0.085,-0.351 0.074,-0.365C0.063,-0.379 0.057,-0.395 0.057,-0.414C0.057,-0.433 0.062,-0.448 0.071,-0.461C0.081,-0.473 0.093,-0.484 0.11,-0.494C0.127,-0.505 0.148,-0.514 0.174,-0.521C0.2,-0.527 0.228,-0.531 0.259,-0.531C0.288,-0.531 0.314,-0.527 0.337,-0.521C0.36,-0.515 0.379,-0.504 0.395,-0.488C0.411,-0.473 0.421,-0.454 0.426,-0.431C0.431,-0.409 0.433,-0.381 0.433,-0.348L0.433,-0.074C0.433,-0.057 0.435,-0.045 0.439,-0.039C0.443,-0.032 0.449,-0.028 0.458,-0.028C0.465,-0.028 0.471,-0.03 0.477,-0.033C0.483,-0.037 0.49,-0.041 0.497,-0.047L0.508,-0.03C0.494,-0.019 0.478,-0.009 0.462,-0.003C0.446,0.004 0.426,0.007 0.404,0.007C0.381,0.007 0.362,0.004 0.349,-0.003C0.335,-0.01 0.325,-0.02 0.318,-0.032C0.312,-0.045 0.309,-0.059 0.308,-0.077C0.292,-0.05 0.272,-0.029 0.249,-0.015C0.225,-0 0.197,0.007 0.165,0.007ZM0.225,-0.049C0.241,-0.049 0.256,-0.053 0.269,-0.062C0.283,-0.07 0.296,-0.084 0.307,-0.101L0.307,-0.303C0.301,-0.293 0.291,-0.284 0.279,-0.276C0.267,-0.268 0.253,-0.26 0.239,-0.252C0.225,-0.244 0.212,-0.235 0.2,-0.225C0.187,-0.215 0.177,-0.202 0.168,-0.187C0.16,-0.171 0.156,-0.152 0.156,-0.129C0.156,-0.103 0.162,-0.083 0.175,-0.07C0.187,-0.056 0.204,-0.049 0.225,-0.049Z" style="fill-rule:nonzero;"/>
                </g>
                <g transform="matrix(512,0,0,512,3349.845194,1427.605546)">
                    <path d="M0.385,-0.531C0.413,-0.531 0.435,-0.527 0.453,-0.52C0.47,-0.513 0.484,-0.504 0.494,-0.492C0.506,-0.479 0.514,-0.463 0.519,-0.443C0.524,-0.423 0.527,-0.396 0.527,-0.362L0.527,-0.093C0.527,-0.065 0.532,-0.046 0.542,-0.036C0.553,-0.026 0.57,-0.021 0.595,-0.021L0.595,-0C0.583,-0.001 0.564,-0.002 0.539,-0.003C0.515,-0.004 0.49,-0.004 0.467,-0.004C0.442,-0.004 0.419,-0.004 0.395,-0.003C0.372,-0.002 0.355,-0.001 0.343,-0L0.343,-0.021C0.364,-0.021 0.379,-0.026 0.388,-0.036C0.396,-0.046 0.401,-0.065 0.401,-0.093L0.401,-0.396C0.401,-0.414 0.399,-0.43 0.396,-0.445C0.392,-0.459 0.386,-0.47 0.376,-0.478C0.366,-0.486 0.352,-0.491 0.333,-0.491C0.311,-0.491 0.292,-0.485 0.275,-0.473C0.258,-0.461 0.244,-0.444 0.235,-0.423C0.225,-0.402 0.22,-0.379 0.22,-0.353L0.22,-0.093C0.22,-0.065 0.224,-0.046 0.233,-0.036C0.242,-0.026 0.257,-0.021 0.278,-0.021L0.278,-0C0.266,-0.001 0.249,-0.002 0.227,-0.003C0.204,-0.004 0.181,-0.004 0.158,-0.004C0.133,-0.004 0.108,-0.004 0.083,-0.003C0.058,-0.002 0.038,-0.001 0.026,-0L0.026,-0.021C0.05,-0.021 0.068,-0.026 0.078,-0.036C0.089,-0.046 0.094,-0.065 0.094,-0.093L0.094,-0.408C0.094,-0.438 0.089,-0.46 0.079,-0.474C0.07,-0.488 0.052,-0.496 0.026,-0.496L0.026,-0.517C0.047,-0.515 0.068,-0.514 0.088,-0.514C0.113,-0.514 0.136,-0.515 0.159,-0.517C0.181,-0.519 0.201,-0.523 0.22,-0.528L0.22,-0.428C0.237,-0.466 0.26,-0.492 0.289,-0.508C0.319,-0.523 0.351,-0.531 0.385,-0.531Z" style="fill-rule:nonzero;"/>
                </g>
                <g transform="matrix(512,0,0,512,3640.763944,1427.605546)">
                    <path d="M0.282,-0.531C0.307,-0.531 0.33,-0.528 0.351,-0.522C0.372,-0.517 0.39,-0.509 0.405,-0.499C0.421,-0.489 0.434,-0.477 0.443,-0.462C0.452,-0.447 0.457,-0.43 0.457,-0.412C0.457,-0.39 0.45,-0.372 0.437,-0.359C0.424,-0.346 0.407,-0.339 0.387,-0.339C0.366,-0.339 0.349,-0.345 0.336,-0.357C0.323,-0.369 0.317,-0.385 0.317,-0.405C0.317,-0.425 0.323,-0.441 0.334,-0.453C0.346,-0.466 0.359,-0.474 0.375,-0.478C0.369,-0.487 0.36,-0.494 0.347,-0.5C0.334,-0.505 0.32,-0.508 0.305,-0.508C0.285,-0.508 0.267,-0.503 0.251,-0.492C0.235,-0.482 0.222,-0.466 0.21,-0.446C0.198,-0.426 0.189,-0.401 0.182,-0.371C0.176,-0.341 0.173,-0.307 0.173,-0.269C0.173,-0.215 0.179,-0.172 0.192,-0.141C0.205,-0.11 0.222,-0.088 0.243,-0.075C0.264,-0.062 0.286,-0.055 0.309,-0.055C0.323,-0.055 0.338,-0.058 0.354,-0.063C0.37,-0.068 0.386,-0.077 0.402,-0.09C0.418,-0.103 0.432,-0.121 0.444,-0.144L0.463,-0.137C0.455,-0.114 0.444,-0.09 0.427,-0.067C0.411,-0.043 0.39,-0.024 0.364,-0.009C0.338,0.006 0.306,0.014 0.269,0.014C0.226,0.014 0.187,0.004 0.153,-0.016C0.118,-0.035 0.091,-0.065 0.07,-0.105C0.05,-0.145 0.04,-0.194 0.04,-0.254C0.04,-0.313 0.05,-0.362 0.071,-0.404C0.092,-0.445 0.121,-0.476 0.157,-0.498C0.194,-0.52 0.236,-0.531 0.282,-0.531Z" style="fill-rule:nonzero;"/>
                </g>
                <g transform="matrix(512,0,0,512,3872.597757,1427.605546)">
                    <path d="M0.278,-0.531C0.337,-0.531 0.383,-0.513 0.416,-0.478C0.45,-0.443 0.466,-0.386 0.466,-0.309L0.129,-0.309L0.128,-0.328L0.35,-0.328C0.351,-0.361 0.349,-0.391 0.344,-0.418C0.338,-0.446 0.33,-0.468 0.319,-0.485C0.307,-0.502 0.292,-0.51 0.273,-0.51C0.248,-0.51 0.225,-0.495 0.207,-0.465C0.188,-0.436 0.177,-0.387 0.172,-0.32L0.176,-0.314C0.175,-0.305 0.174,-0.296 0.174,-0.286C0.173,-0.276 0.173,-0.266 0.173,-0.256C0.173,-0.21 0.18,-0.172 0.193,-0.142C0.207,-0.112 0.224,-0.09 0.245,-0.076C0.267,-0.062 0.288,-0.055 0.311,-0.055C0.327,-0.055 0.342,-0.057 0.358,-0.062C0.374,-0.067 0.39,-0.076 0.405,-0.088C0.421,-0.101 0.435,-0.119 0.447,-0.142L0.466,-0.134C0.459,-0.111 0.446,-0.087 0.429,-0.064C0.412,-0.041 0.39,-0.022 0.364,-0.008C0.338,0.007 0.306,0.014 0.27,0.014C0.225,0.014 0.184,0.004 0.15,-0.016C0.115,-0.036 0.088,-0.066 0.069,-0.105C0.05,-0.145 0.04,-0.193 0.04,-0.251C0.04,-0.311 0.05,-0.363 0.07,-0.404C0.091,-0.446 0.119,-0.477 0.155,-0.498C0.191,-0.52 0.232,-0.531 0.278,-0.531Z" style="fill-rule:nonzero;"/>
                </g>
                <g transform="matrix(512,0,0,512,4110.575319,1427.605546)">
                    <path d="M0.505,-0.783L0.505,-0.109C0.505,-0.079 0.51,-0.057 0.52,-0.043C0.53,-0.029 0.548,-0.021 0.573,-0.021L0.573,-0C0.553,-0.002 0.532,-0.003 0.511,-0.003C0.486,-0.003 0.463,-0.002 0.441,-0C0.419,0.002 0.398,0.005 0.379,0.011L0.379,-0.663C0.379,-0.693 0.374,-0.715 0.365,-0.73C0.355,-0.744 0.337,-0.751 0.311,-0.751L0.311,-0.772C0.333,-0.77 0.353,-0.769 0.373,-0.769C0.398,-0.769 0.422,-0.77 0.444,-0.773C0.466,-0.775 0.487,-0.779 0.505,-0.783ZM0.266,-0.531C0.295,-0.531 0.321,-0.525 0.345,-0.514C0.368,-0.503 0.385,-0.484 0.397,-0.457L0.385,-0.447C0.376,-0.467 0.363,-0.481 0.347,-0.49C0.331,-0.499 0.313,-0.504 0.293,-0.504C0.257,-0.504 0.228,-0.484 0.207,-0.443C0.185,-0.403 0.174,-0.342 0.174,-0.258C0.174,-0.202 0.179,-0.157 0.187,-0.123C0.196,-0.089 0.208,-0.064 0.225,-0.048C0.241,-0.033 0.26,-0.025 0.283,-0.025C0.307,-0.025 0.329,-0.035 0.348,-0.055C0.368,-0.074 0.379,-0.103 0.382,-0.139L0.389,-0.111C0.38,-0.07 0.364,-0.039 0.34,-0.018C0.316,0.003 0.285,0.014 0.245,0.014C0.205,0.014 0.17,0.004 0.139,-0.015C0.108,-0.035 0.084,-0.065 0.067,-0.105C0.05,-0.145 0.041,-0.197 0.041,-0.259C0.041,-0.32 0.051,-0.37 0.071,-0.411C0.091,-0.451 0.118,-0.481 0.152,-0.501C0.186,-0.521 0.224,-0.531 0.266,-0.531Z" style="fill-rule:nonzero;"/>
                </g>
                <g transform="matrix(512,0,0,512,4413.782069,1427.605546)">
                </g>
            </g>
        </g>
    </g>
</svg>
